<svg id="Group_67" data-name="Group 67" xmlns="http://www.w3.org/2000/svg" width="172.893" height="70.142" viewBox="0 0 172.893 70.142">
  <g id="Group_14" data-name="Group 14" transform="translate(1.213)">
    <path id="Path_7" data-name="Path 7" d="M271.288,312.44h-.024a1.028,1.028,0,0,1-1-.978c-.295-3.287-5.49-42.1-8.023-59.492-.035.613-.082,1.237-.118,1.885-.436,7.068-1.048,16.752-1.59,24.539-.294,4.253-.554,7.551-.766,9.825-.118,1.284-.224,2.274-.306,2.945-.13.954-.247,1.932-1.237,1.92-.954-.024-1.037-1.013-1.06-1.343s-.047-.8-.059-1.449a107.369,107.369,0,0,0-.954-12.817c-.106.884-.224,1.791-.353,2.686-.73,5.019-1.272,5.843-2.262,5.89-1.225.047-1.473-1.531-1.638-2.568-.177-1.155-.495-1.626-.719-1.673-.8-.189-2.863,1.744-4.194,3.593a.988.988,0,0,1-.8.412H236.5v-1.991h9.177c1.107-1.461,3.734-4.488,5.961-3.958a2.772,2.772,0,0,1,1.885,1.932c.448-2.545.907-6.373,1.1-8.977.035-.436.13-1.744,1.249-1.72.978.024,1.272,1.178,1.508,2.1a37.308,37.308,0,0,1,.719,3.852c.13.872.236,1.791.342,2.757.6-8.411,1.284-19.332,1.7-26.071.412-6.55.624-9.99.683-10.508a.982.982,0,0,1,1.013-.907c.848.012,1,.789,1.143,1.543.094.471.212,1.19.353,2.109.271,1.708.648,4.217,1.107,7.457.8,5.584,1.9,13.465,3.157,22.772,1.508,11.121,2.969,22.171,3.841,28.839,2.556-16.057,8.588-58.6,8.989-61.813a1.015,1.015,0,0,1,1.037-.931c.907.024.99.872,1.06,1.555.047.424.094,1.06.165,1.885.118,1.5.259,3.628.448,6.526.342,5.313.766,12.334,1.131,18.531.188,3.075.365,6.173.542,8.894a59.168,59.168,0,0,1,1.649-8.906,1.172,1.172,0,0,1,1.272-.86c.966.118,1.367,1.119,2.038,5.113.389,2.3.766,5.125,1.048,7.28.919-2.368,1.72-3.687,2.969-3.44.954.188,1.661,1.26,2.733,3a19.064,19.064,0,0,0,1.355,2c.177-.259.4-.636.577-.931.919-1.555,2.05-3.487,3.817-3.381,1.473.094,2.474,1.626,3.134,3h96.919v1.979H304.769a.977.977,0,0,1-.907-.6c-1.013-2.344-1.673-2.415-1.708-2.415-.542-.035-1.555,1.673-1.979,2.4-.683,1.155-1.131,1.92-1.908,2.073-1.331.271-2.309-1.3-3.428-3.11a18.252,18.252,0,0,0-1.249-1.861,24.7,24.7,0,0,0-1.52,3.64c-.66,1.838-.836,2.321-1.6,2.368a1.023,1.023,0,0,1-.978-.577c-.13-.247-.153-.412-.577-3.617-.271-2.015-.766-5.8-1.237-8.447-.412,2.321-.86,5.5-1.225,8.082-.236,1.614-.448,3.145-.624,4.241-.094.589-.177,1.037-.236,1.343-.094.436-.259,1.237-1.1,1.261a1.035,1.035,0,0,1-1.037-.872c-.106-.518-.412-5.49-1.131-17.565-.353-5.926-.778-13.029-1.131-18.519-.942,6.7-2.321,16.328-3.7,25.882-1.4,9.66-2.545,17.388-3.4,22.961-.507,3.275-.907,5.808-1.213,7.54-.165.931-.295,1.649-.389,2.132C272.313,311.627,272.148,312.44,271.288,312.44Zm26.365-28.262Z" transform="translate(-236.5 -242.297)" fill="#e8404d"/>
  </g>
  <g id="Group_15" data-name="Group 15" transform="translate(0 9.248)">
    <path id="Path_8" data-name="Path 8" d="M241.315,335.2h-11.6v9.5H243.2v2.9h-17V320.8h16.811v2.9H229.7v8.623h11.6V335.2Z" transform="translate(-226.2 -320.8)" fill="#272727"/>
  </g>
  <g id="Group_16" data-name="Group 16" transform="translate(60.011 9.248)">
    <path id="Path_9" data-name="Path 9" d="M750.7,335.2H739.1v9.5h13.489v2.9H735.6V320.8h16.811v2.9H739.1v8.623h11.6Z" transform="translate(-735.6 -320.8)" fill="#272727"/>
  </g>
  <g id="Group_17" data-name="Group 17" transform="translate(81.369 9.248)">
    <path id="Path_10" data-name="Path 10" d="M926.737,336.739h-6.291v10.85H916.9V320.8h8.859q4.559,0,6.986,2.05a7.4,7.4,0,0,1,2.427,6.008,7.148,7.148,0,0,1-1.355,4.347,7.922,7.922,0,0,1-3.77,2.768l6.291,11.38v.224h-3.77Zm-6.291-2.863h5.419a6.946,6.946,0,0,0,3.028-.624,4.666,4.666,0,0,0,2.014-1.755,4.891,4.891,0,0,0,.719-2.639,4.824,4.824,0,0,0-1.484-3.805,6.343,6.343,0,0,0-4.276-1.355h-5.419Z" transform="translate(-916.9 -320.8)" fill="#272727"/>
  </g>
  <g id="Group_18" data-name="Group 18" transform="translate(104.612 9.248)">
    <path id="Path_11" data-name="Path 11" d="M1114.2,347.589V320.8h7.54a12.3,12.3,0,0,1,6.22,1.543,10.407,10.407,0,0,1,4.123,4.371,14.6,14.6,0,0,1,1.484,6.6v1.7a14.361,14.361,0,0,1-1.473,6.656,10.334,10.334,0,0,1-4.182,4.371,13.034,13.034,0,0,1-6.326,1.567H1114.2Zm3.511-23.879V344.7h3.734a9.078,9.078,0,0,0,4.653-1.131,7.243,7.243,0,0,0,2.957-3.31,12.465,12.465,0,0,0,1.013-5.313v-1.543a12.7,12.7,0,0,0-.966-5.219,7.2,7.2,0,0,0-2.8-3.31,8.226,8.226,0,0,0-4.441-1.155h-4.147Z" transform="translate(-1114.2 -320.8)" fill="#272727"/>
  </g>
  <g id="Group_19" data-name="Group 19" transform="translate(126.359 9.26)">
    <path id="Path_12" data-name="Path 12" d="M1316.165,340.68h-11.227l-2.521,7.009H1298.8l10.214-26.789h3.087l10.249,26.789h-3.616Zm-10.131-2.91h9.083l-4.559-12.511Z" transform="translate(-1298.8 -320.9)" fill="#272727"/>
  </g>
  <g id="Group_20" data-name="Group 20" transform="translate(153.526 9.248)">
    <path id="Path_13" data-name="Path 13" d="M1529.4,347.589V320.8h7.54a12.3,12.3,0,0,1,6.22,1.543,10.407,10.407,0,0,1,4.123,4.371,14.6,14.6,0,0,1,1.484,6.6v1.7a14.359,14.359,0,0,1-1.473,6.656,10.334,10.334,0,0,1-4.182,4.371,13.035,13.035,0,0,1-6.326,1.567H1529.4Zm3.5-23.879V344.7h3.734a9.078,9.078,0,0,0,4.653-1.131,7.243,7.243,0,0,0,2.957-3.31,12.467,12.467,0,0,0,1.013-5.313v-1.543a12.7,12.7,0,0,0-.966-5.219,7.2,7.2,0,0,0-2.8-3.31,8.226,8.226,0,0,0-4.441-1.155H1532.9Z" transform="translate(-1529.4 -320.8)" fill="#272727"/>
  </g>
  <g id="Group_37" data-name="Group 37" transform="translate(63.404 46.287)">
    <g id="Group_30" data-name="Group 30">
      <g id="Group_21" data-name="Group 21" transform="translate(0 4.677)">
        <path id="Path_14" data-name="Path 14" d="M766.132,676.337c-.377-.495-.813-.954-1.237-1.437-.177.165-.342.306-.495.459v.071c.518.577,1.037,1.166,1.555,1.744.071.082.153.165.283.318,0-.247.012-.389,0-.518C766.214,676.75,766.249,676.49,766.132,676.337Z" transform="translate(-764.4 -674.9)" fill="#272727"/>
      </g>
      <g id="Group_22" data-name="Group 22" transform="translate(36.355 1.411)">
        <path id="Path_15" data-name="Path 15" d="M1078.56,650.712c1.2-1.19,2.368-2.344,3.558-3.534-.683,0-1.331-.012-1.979.012a.8.8,0,0,0-.495.2c-.707.648-1.4,1.319-2.1,1.991-.082.082-.177.153-.295.259-.224-.236-.436-.424-.613-.648a1.518,1.518,0,0,0-1.5-.613c-.66.059-1.343.012-2.109.012l2.639,2.568c-.884.836-1.743,1.649-2.674,2.545.754,0,1.4.012,2.05-.012a.759.759,0,0,0,.459-.189c.436-.389.836-.813,1.343-1.308a2.007,2.007,0,0,0,.212.306c.919.942,1.838,1.885,2.769,2.816a.742.742,0,0,0,.483.2c.8.024,1.59.012,2.391.012.094,0,.188-.012.342-.024C1081.553,653.752,1080.092,652.267,1078.56,650.712Z" transform="translate(-1073 -647.175)" fill="#272727"/>
      </g>
      <g id="Group_23" data-name="Group 23" transform="translate(10.838 2.686)">
        <path id="Path_16" data-name="Path 16" d="M860.912,659.838h-1.944V658H856.4v4.995h2.568v-1.932h1.944v1.944h2.521v-4.995h-2.521Z" transform="translate(-856.4 -658)" fill="#272727"/>
      </g>
      <g id="Group_24" data-name="Group 24" transform="translate(19.144 2.639)">
        <path id="Path_17" data-name="Path 17" d="M929.4,660.687h2.957v-1.213h-2.98v-.719h3.734V657.6H926.9v5.042h6.22v-1.166h-3.711C929.4,661.2,929.4,660.969,929.4,660.687Z" transform="translate(-926.9 -657.6)" fill="#272727"/>
      </g>
      <g id="Group_25" data-name="Group 25" transform="translate(5.207)">
        <path id="Path_18" data-name="Path 18" d="M808.6,645.508c1.555-1.72,3.075-3.381,4.606-5.066-1.531-1.744-3.051-3.464-4.606-5.242Z" transform="translate(-808.6 -635.2)" fill="#272727"/>
      </g>
      <g id="Group_26" data-name="Group 26" transform="translate(26.554 2.686)">
        <path id="Path_19" data-name="Path 19" d="M992.345,658H989.8v5.007h5.749v-1.225h-3.2Z" transform="translate(-989.8 -658)" fill="#272727"/>
      </g>
      <g id="Group_27" data-name="Group 27" transform="translate(33.08 2.639)">
        <path id="Path_20" data-name="Path 20" d="M1045.2,662.642h2.545V657.6H1045.2Z" transform="translate(-1045.2 -657.6)" fill="#272727"/>
      </g>
      <g id="Group_28" data-name="Group 28" transform="translate(1.967 4.983)">
        <path id="Path_21" data-name="Path 21" d="M783.3,681.482a6.853,6.853,0,0,1-.542-.624.81.81,0,0,1-.236-.66c.012-.9,0-1.791,0-2.7H781.1v.7h.907v2.533a.6.6,0,0,0,.082.365c.483.577.99,1.131,1.555,1.767C783.656,682.307,783.739,681.835,783.3,681.482Z" transform="translate(-781.1 -677.5)" fill="#272727"/>
      </g>
      <g id="Group_29" data-name="Group 29" transform="translate(2.747 1.932)">
        <path id="Path_22" data-name="Path 22" d="M788.266,653.037V651.6a1.113,1.113,0,0,0-.471,1.437Z" transform="translate(-787.714 -651.6)" fill="#272727"/>
      </g>
    </g>
    <g id="Group_36" data-name="Group 36" transform="translate(6.962 8.942)">
      <g id="Group_32" data-name="Group 32">
        <g id="Group_31" data-name="Group 31">
          <path id="Path_23" data-name="Path 23" d="M824.2,712.49a.7.7,0,0,1-.7-.7.7.7,0,1,1,.7.7Zm0-1.284a.6.6,0,1,0,.6.6A.6.6,0,0,0,824.2,711.206Z" transform="translate(-823.5 -711.1)" fill="#272727"/>
        </g>
      </g>
      <g id="Group_35" data-name="Group 35" transform="translate(0.377 0.259)">
        <g id="Group_34" data-name="Group 34">
          <g id="Group_33" data-name="Group 33">
            <path id="Path_24" data-name="Path 24" d="M827.03,713.83h-.212v.353H826.7V713.3h.294a.374.374,0,0,1,.236.071.228.228,0,0,1,.083.2.188.188,0,0,1-.047.141.369.369,0,0,1-.13.094l.212.377v.012h-.13Zm-.212-.094h.177a.223.223,0,0,0,.094-.024.312.312,0,0,0,.071-.059.219.219,0,0,0,.024-.083.161.161,0,0,0-.047-.13.252.252,0,0,0-.141-.047h-.177Z" transform="translate(-826.7 -713.3)" fill="#272727"/>
          </g>
        </g>
      </g>
    </g>
  </g>
  <g id="Group_66" data-name="Group 66" transform="translate(113.059 46.907)">
    <path id="Path_25" data-name="Path 25" d="M1185.9,641.022c2.957-.966,8.765-.6,10.709.507-.212.495-.436.99-.66,1.508-.377-.082-.754-.177-1.131-.259a23.165,23.165,0,0,0-4.029-.436,18.5,18.5,0,0,0-3.947.342c-.094.024-.177.047-.235-.082C1186.383,642.082,1186.136,641.564,1185.9,641.022Z" transform="translate(-1185.9 -640.464)" fill="#af1b1d"/>
    <path id="Path_26" data-name="Path 26" d="M1212.3,671.173c-.212.471-.424.907-.624,1.355a21.911,21.911,0,0,0-5.773-1.272c.047-.507.094-1.013.141-1.555A22.421,22.421,0,0,1,1212.3,671.173Z" transform="translate(-1203.544 -666.256)" fill="#af1b1d"/>
    <path id="Path_27" data-name="Path 27" d="M1218.959,699.4a3.191,3.191,0,0,0,2.333,3.016c-.259.565-.507,1.131-.766,1.7a3.439,3.439,0,0,1-2.168-3.169A2.658,2.658,0,0,1,1218.959,699.4Z" transform="translate(-1214.53 -692.457)" fill="#af1b1d"/>
    <path id="Path_28" data-name="Path 28" d="M1210.9,659.9c.212-.106.389-.2.577-.283.448-.2.9-.389,1.355-.577a1.638,1.638,0,0,1,.86-.13c1.013.118,2.026.212,3.051.318v.082a2.3,2.3,0,0,1-.236.059,17.147,17.147,0,0,0-2.721.907.624.624,0,0,1-.33.035c-.813-.13-1.626-.271-2.439-.4C1210.982,659.939,1210.959,659.927,1210.9,659.9Z" transform="translate(-1207.955 -656.73)" fill="#af1b1d"/>
    <path id="Path_29" data-name="Path 29" d="M1229.122,690.665a4.713,4.713,0,0,0-2.78,1.732,2.536,2.536,0,0,1-.271-1.6.28.28,0,0,1,.106-.153c.247-.2.495-.389.742-.577a.241.241,0,0,1,.2-.035c.672.188,1.343.389,2.015.589A.071.071,0,0,1,1229.122,690.665Z" transform="translate(-1221.312 -684.182)" fill="#af1b1d"/>
    <g id="Group_65" data-name="Group 65" transform="translate(13.336 0.969)">
      <g id="Group_43" data-name="Group 43" transform="translate(37.121 0.096)">
        <g id="Group_39" data-name="Group 39">
          <g id="Group_38" data-name="Group 38">
            <path id="Path_30" data-name="Path 30" d="M1615.284,651.668a1.084,1.084,0,1,1,1.084-1.084A1.081,1.081,0,0,1,1615.284,651.668Zm0-2.026a.942.942,0,1,0,.943.942A.945.945,0,0,0,1615.284,649.641Z" transform="translate(-1614.2 -649.5)" fill="#272727"/>
          </g>
        </g>
        <g id="Group_42" data-name="Group 42" transform="translate(0.565 0.401)">
          <g id="Group_41" data-name="Group 41">
            <g id="Group_40" data-name="Group 40">
              <path id="Path_31" data-name="Path 31" d="M1619.518,653.713h-.33v.565H1619V652.9h.459a.562.562,0,0,1,.365.106.39.39,0,0,1,.13.306.363.363,0,0,1-.071.224.438.438,0,0,1-.2.141l.33.589v.012h-.2Zm-.318-.141h.283a.327.327,0,0,0,.153-.035.208.208,0,0,0,.106-.094.251.251,0,0,0,.035-.141.243.243,0,0,0-.083-.2.319.319,0,0,0-.224-.071h-.283v.542Z" transform="translate(-1619 -652.9)" fill="#272727"/>
            </g>
          </g>
        </g>
      </g>
      <g id="Group_44" data-name="Group 44" transform="translate(6.255 0.002)">
        <path id="Path_32" data-name="Path 32" d="M1356.193,648.7a3.959,3.959,0,1,1-3.994,3.923A3.873,3.873,0,0,1,1356.193,648.7Zm0,6.42a2.475,2.475,0,1,0,0-4.948,2.478,2.478,0,0,0-2.533,2.427A2.526,2.526,0,0,0,1356.193,655.12Z" transform="translate(-1352.199 -648.7)" fill="#272727"/>
      </g>
      <g id="Group_45" data-name="Group 45" transform="translate(22.89 0.13)">
        <path id="Path_33" data-name="Path 33" d="M1493.4,657.433c.365-.766.707-1.484,1.048-2.215q1.255-2.633,2.486-5.266c.059-.13.118-.177.259-.165.377.012.766,0,1.143.012a.275.275,0,0,1,.2.118c1.178,2.474,2.344,4.948,3.522,7.422.012.024.012.047.035.106-.518,0-1.025,0-1.52-.012-.047,0-.118-.071-.141-.13-.224-.459-.436-.907-.636-1.367a.241.241,0,0,0-.259-.165h-3.511a.261.261,0,0,0-.271.165c-.212.459-.424.907-.66,1.367-.035.059-.118.141-.177.141C1494.425,657.433,1493.93,657.433,1493.4,657.433Zm3.122-3.169H1499c-.412-.872-.813-1.72-1.237-2.615C1497.335,652.544,1496.934,653.392,1496.522,654.264Z" transform="translate(-1493.4 -649.785)" fill="#272727"/>
      </g>
      <g id="Group_46" data-name="Group 46" transform="translate(15.264)">
        <path id="Path_34" data-name="Path 34" d="M1435.873,650.384c-.4.271-.789.542-1.178.813a2.571,2.571,0,0,0-3.805-.342,2.517,2.517,0,0,0-.13,3.44,2.555,2.555,0,0,0,3.935-.212c.389.259.789.518,1.19.777a3.876,3.876,0,0,1-4.229,1.638,3.964,3.964,0,1,1,4.218-6.114Z" transform="translate(-1428.672 -648.685)" fill="#272727"/>
      </g>
      <g id="Group_47" data-name="Group 47" transform="translate(0.024 0.131)">
        <path id="Path_35" data-name="Path 35" d="M1299.3,649.8h5.973v1.437h-4.512V652.6h2.992v1.5h-3v3.31H1299.3Z" transform="translate(-1299.3 -649.8)" fill="#272727"/>
      </g>
      <g id="Group_48" data-name="Group 48" transform="translate(32.585 0.143)">
        <path id="Path_36" data-name="Path 36" d="M1577.125,656.073h4.547v1.449H1575.7V649.9h1.437C1577.125,651.95,1577.125,653.988,1577.125,656.073Z" transform="translate(-1575.7 -649.9)" fill="#272727"/>
      </g>
      <g id="Group_49" data-name="Group 49" transform="translate(14.196 9.822)">
        <path id="Path_37" data-name="Path 37" d="M1420.743,733.027c.106.2.212.377.318.577-.224.071-.389.047-.471-.177a.245.245,0,0,0-.047-.071c-.2-.342-.2-.342-.648-.271v.542h-.295v-1.567c.342,0,.683-.012,1.025,0a.425.425,0,0,1,.389.33.46.46,0,0,1-.13.506C1420.872,732.944,1420.813,732.98,1420.743,733.027Zm-.825-.294a5.623,5.623,0,0,0,.636-.012c.071-.012.177-.106.177-.165a.264.264,0,0,0-.165-.188,6.109,6.109,0,0,0-.66-.012C1419.918,732.5,1419.918,732.6,1419.918,732.732Z" transform="translate(-1419.6 -732.056)" fill="#272727"/>
      </g>
      <g id="Group_50" data-name="Group 50" transform="translate(34.67 9.811)">
        <path id="Path_38" data-name="Path 38" d="M1593.412,731.994a.339.339,0,0,1,.436.153c.212.294.448.565.719.9v-1.06h.306v1.543a.365.365,0,0,1-.448-.141c-.212-.295-.459-.565-.719-.9v1.049h-.306C1593.412,733.019,1593.412,732.512,1593.412,731.994Z" transform="translate(-1593.4 -731.966)" fill="#272727"/>
      </g>
      <g id="Group_51" data-name="Group 51" transform="translate(37.097 9.815)">
        <path id="Path_39" data-name="Path 39" d="M1614,733.579V732a5.125,5.125,0,0,1,.954.059.794.794,0,0,1-.118,1.531C1614.566,733.59,1614.294,733.579,1614,733.579Zm.318-.306c.283,0,.565.082.766-.2a.442.442,0,0,0,.012-.53c-.188-.295-.495-.224-.789-.224C1614.318,732.636,1614.318,732.943,1614.318,733.272Z" transform="translate(-1614 -732)" fill="#272727"/>
      </g>
      <g id="Group_52" data-name="Group 52" transform="translate(4.712 9.827)">
        <path id="Path_40" data-name="Path 40" d="M1339.406,732.665h.518v.318h-.518v.365h.954v.294a.805.805,0,0,1-.153.024H1339.1V732.1h1.225v.283h-.919Z" transform="translate(-1339.1 -732.1)" fill="#272727"/>
      </g>
      <g id="Group_53" data-name="Group 53" transform="translate(29.652 9.791)">
        <path id="Path_41" data-name="Path 41" d="M1551.625,733.438a.82.82,0,0,1-.824-.825.793.793,0,0,1,.813-.813.82.82,0,0,1,.836.813A.805.805,0,0,1,1551.625,733.438Zm.012-.318a.523.523,0,0,0,.519-.518.508.508,0,0,0-.507-.495.507.507,0,1,0-.012,1.013Z" transform="translate(-1550.8 -731.8)" fill="#272727"/>
      </g>
      <g id="Group_54" data-name="Group 54" transform="translate(10.544 9.843)">
        <path id="Path_42" data-name="Path 42" d="M1388.906,733.2v.577h-.306v-1.531c.377,0,.754-.024,1.143.012a.461.461,0,0,1,.33.507.48.48,0,0,1-.448.436C1389.389,733.208,1389.166,733.2,1388.906,733.2Zm.012-.306a5.626,5.626,0,0,0,.636-.012c.071-.012.13-.106.2-.165-.059-.071-.118-.177-.188-.189a5.626,5.626,0,0,0-.636-.012C1388.918,732.655,1388.918,732.761,1388.918,732.89Z" transform="translate(-1388.6 -732.235)" fill="#272727"/>
      </g>
      <g id="Group_55" data-name="Group 55" transform="translate(21.346 9.791)">
        <path id="Path_43" data-name="Path 43" d="M1481.947,732.613a.8.8,0,0,1-.813.825.819.819,0,1,1,.813-.825Zm-1.331-.035a.507.507,0,0,0,.483.542.514.514,0,0,0,.542-.483.513.513,0,0,0-1.025-.059Z" transform="translate(-1480.298 -731.8)" fill="#272727"/>
      </g>
      <g id="Group_56" data-name="Group 56" transform="translate(27.366 9.784)">
        <path id="Path_44" data-name="Path 44" d="M1532.767,731.931a1.758,1.758,0,0,0-.13.2c-.236-.024-.436-.059-.648-.071-.059,0-.13.071-.188.118.059.047.106.118.177.13.153.047.318.047.471.082a.5.5,0,0,1,.424.483.489.489,0,0,1-.436.471,1.238,1.238,0,0,1-1.037-.236c.059-.071.106-.153.13-.177a7.126,7.126,0,0,0,.789.094c.083,0,.177-.118.271-.177-.082-.059-.153-.153-.236-.177-.141-.047-.306-.047-.448-.082-.247-.059-.389-.2-.4-.4s.118-.353.365-.424A1.138,1.138,0,0,1,1532.767,731.931Z" transform="translate(-1531.4 -731.735)" fill="#272727"/>
      </g>
      <g id="Group_57" data-name="Group 57" transform="translate(8.176 9.781)">
        <path id="Path_45" data-name="Path 45" d="M1368.5,733.115c.059-.082.106-.153.13-.189.247.047.471.094.7.118a.262.262,0,0,0,.188-.035.348.348,0,0,0,.153-.165c.012-.035-.082-.13-.141-.141-.177-.047-.353-.071-.53-.106s-.365-.118-.4-.353a.372.372,0,0,1,.247-.436,1.115,1.115,0,0,1,1.048.094c-.059.083-.106.165-.141.2a6.123,6.123,0,0,0-.613-.071c-.071,0-.153.082-.224.118a.961.961,0,0,0,.2.13c.141.035.306.047.448.082a.488.488,0,0,1,.412.495.477.477,0,0,1-.424.459A1.217,1.217,0,0,1,1368.5,733.115Z" transform="translate(-1368.5 -731.715)" fill="#272727"/>
      </g>
      <g id="Group_58" data-name="Group 58" transform="translate(2.274 9.839)">
        <path id="Path_46" data-name="Path 46" d="M1318.694,733.1v.66h-.294V732.2h.294v.554h.872V732.2h.306v1.543h-.283V733.1Z" transform="translate(-1318.4 -732.2)" fill="#272727"/>
      </g>
      <g id="Group_59" data-name="Group 59" transform="translate(32.201 9.815)">
        <path id="Path_47" data-name="Path 47" d="M1573.621,732.012h.283a9.377,9.377,0,0,1-.012,1,.733.733,0,0,1-1.437,0,9.637,9.637,0,0,1-.012-1.013h.295v.8a.426.426,0,0,0,.424.483.454.454,0,0,0,.448-.448c.012-.141,0-.283,0-.412S1573.621,732.165,1573.621,732.012Z" transform="translate(-1572.435 -732)" fill="#272727"/>
      </g>
      <g id="Group_60" data-name="Group 60" transform="translate(23.868 9.827)">
        <path id="Path_48" data-name="Path 48" d="M1502.006,733.655h-.306V732.1h1.26v.283h-.943v.283h.542v.318h-.554Z" transform="translate(-1501.7 -732.1)" fill="#272727"/>
      </g>
      <g id="Group_61" data-name="Group 61" transform="translate(17.859 9.827)">
        <path id="Path_49" data-name="Path 49" d="M1451.218,732.394h-.518V732.1h1.343v.283h-.507v1.26h-.318Z" transform="translate(-1450.7 -732.1)" fill="#272727"/>
      </g>
      <g id="Group_62" data-name="Group 62" transform="translate(0 9.827)">
        <path id="Path_50" data-name="Path 50" d="M1299.925,733.655h-.318v-1.261h-.507V732.1h1.331v.283h-.507Z" transform="translate(-1299.1 -732.1)" fill="#272727"/>
      </g>
      <g id="Group_63" data-name="Group 63" transform="translate(16.623 9.827)">
        <path id="Path_51" data-name="Path 51" d="M1440.494,733.655h-.294V732.1h.294Z" transform="translate(-1440.2 -732.1)" fill="#272727"/>
      </g>
      <g id="Group_64" data-name="Group 64" transform="translate(12.947 9.827)">
        <path id="Path_52" data-name="Path 52" d="M1409.283,733.655H1409V732.1h.283Z" transform="translate(-1409 -732.1)" fill="#272727"/>
      </g>
    </g>
  </g>
</svg>
