<svg xmlns="http://www.w3.org/2000/svg" width="237.224" height="220.952" viewBox="0 0 237.224 220.952">
  <g id="Group_3079" data-name="Group 3079" transform="translate(-309.189 -477.116)">
    <path id="Path_8459" data-name="Path 8459" d="M100,0A100,100,0,1,1,0,100,100,100,0,0,1,100,0Z" transform="translate(323.29 498.068)" fill="#fafafa"/>
    <circle id="Ellipse_67" data-name="Ellipse 67" cx="6.37" cy="6.37" r="6.37" transform="translate(533.673 547.525)" fill="#e04c53"/>
    <circle id="Ellipse_68" data-name="Ellipse 68" cx="3.952" cy="3.952" r="3.952" transform="translate(519.338 494.116)" fill="#e6e6e6"/>
    <circle id="Ellipse_93" data-name="Ellipse 93" cx="2.952" cy="2.952" r="2.952" transform="translate(377.338 477.116)" fill="#e6e6e6"/>
    <circle id="Ellipse_69" data-name="Ellipse 69" cx="7.381" cy="7.381" r="7.381" transform="translate(309.189 652.98)" fill="#9a9898"/>
    <path id="Path_8461" data-name="Path 8461" d="M4.513,0A4.513,4.513,0,1,1,0,4.513,4.513,4.513,0,0,1,4.513,0Z" transform="translate(310.689 588.23)" fill="#cb1b24" stroke="rgba(0,0,0,0)" stroke-width="1"/>
    <g id="Group_3080" data-name="Group 3080" transform="translate(1293.892 257.744) rotate(16)">
      <path id="tag" d="M587.565,179.1l-2.176-20.836a11.187,11.187,0,0,0-3.117-6.485l-8.031-8.364a11.247,11.247,0,0,0-6.356-3.386l-21.324-3.159a7.748,7.748,0,0,0-6.637,1.944L469.105,208.08c-3.294,3.2-2.84,9.012,1.015,12.981L501.6,253.467c3.855,3.969,9.652,4.594,12.946,1.393l70.87-69.317A7.724,7.724,0,0,0,587.565,179.1Zm-16.611-16.773a6.936,6.936,0,1,1,0-9.665A6.835,6.835,0,0,1,570.954,162.326Z" transform="translate(-1027.096 1071.054) rotate(-81)" fill="#afafaf"/>
      <path id="Path_8442" data-name="Path 8442" d="M-686.423,510.926a19.68,19.68,0,0,1-3.591-11.683c0-9.072,5.411-16.425,12.085-16.425s12.085,7.354,12.085,16.425a20.007,20.007,0,0,1-3.107,10.995" transform="matrix(0.469, -0.883, 0.883, 0.469, -913.489, -301.446)" fill="none" stroke="#9a9898" stroke-miterlimit="10" stroke-width="3"/>
      <path id="tag-2" data-name="tag" d="M587.565,179.1l-2.176-20.836a11.187,11.187,0,0,0-3.117-6.485l-8.031-8.364a11.247,11.247,0,0,0-6.356-3.386l-21.324-3.159a7.748,7.748,0,0,0-6.637,1.944L469.105,208.08c-3.294,3.2-2.84,9.012,1.015,12.981L501.6,253.467c3.855,3.969,9.652,4.594,12.946,1.393l70.87-69.317A7.724,7.724,0,0,0,587.565,179.1Zm-16.611-16.773a6.936,6.936,0,1,1,0-9.665A6.835,6.835,0,0,1,570.954,162.326Z" transform="translate(-768.053 1123.854) rotate(-107)" fill="#fff"/>
      <path id="Path_8435" data-name="Path 8435" d="M360.93,146.85a5.92,5.92,0,1,0,5.92,5.92,5.92,5.92,0,0,0-5.92-5.92Zm0,8.27a2.35,2.35,0,1,1,1.668-.685,2.35,2.35,0,0,1-1.668.685Z" transform="translate(-1007.126 860.233) rotate(-71)" fill="#db2d34"/>
      <path id="Path_8436" data-name="Path 8436" d="M379,163.91a5.92,5.92,0,1,0,5.92,5.92A5.92,5.92,0,0,0,379,163.91Zm0,8.27a2.35,2.35,0,1,1,1.668-.685,2.36,2.36,0,0,1-1.668.685Z" transform="translate(-1007.126 860.233) rotate(-71)" fill="#db2d34"/>
      <rect id="Rectangle_692" data-name="Rectangle 692" width="4.17" height="32.28" rx="2.08" transform="matrix(0.899, -0.438, 0.438, 0.899, -743.17, 548.563)" fill="#db2d34"/>
      <g id="Path_8462" data-name="Path 8462" transform="translate(-790.094 529.55)" fill="#fff">
        <path d="M 7 13.5 C 3.415889978408813 13.5 0.5 10.58411026000977 0.5 7 C 0.5 3.415889978408813 3.415889978408813 0.5 7 0.5 C 10.58411026000977 0.5 13.5 3.415889978408813 13.5 7 C 13.5 10.58411026000977 10.58411026000977 13.5 7 13.5 Z" stroke="none"/>
        <path d="M 7 1 C 3.691590309143066 1 1 3.691590309143066 1 7 C 1 10.30840969085693 3.691590309143066 13 7 13 C 10.30840969085693 13 13 10.30840969085693 13 7 C 13 3.691590309143066 10.30840969085693 1 7 1 M 7 0 C 10.86598968505859 0 14 3.134010314941406 14 7 C 14 10.86598968505859 10.86598968505859 14 7 14 C 3.134010314941406 14 0 10.86598968505859 0 7 C 0 3.134010314941406 3.134010314941406 0 7 0 Z" stroke="none" fill="#bfbebe"/>
      </g>
      <g id="Group_3081" data-name="Group 3081" transform="translate(-850.577 -298.873) rotate(-59)">
        <path id="Path_8439" data-name="Path 8439" d="M-694.7,450.214" transform="translate(-1.724 -8.852)" fill="none" stroke="#9a9898" stroke-miterlimit="10" stroke-width="3"/>
        <path id="Path_8440" data-name="Path 8440" d="M-675.905,404.494c12.4.038,21.477,11.039,21.608,21.523.09,7.182-2.232,11.447-6.232,16.541-2.57,3.272-6.587,5.876-9.435,9.416-4.209,5.234-3.286,13.557-3.321,20.139-.041,7.6.285,7.654.216,15.532" transform="translate(-5.58 0)" fill="none" stroke="#9a9898" stroke-linecap="round" stroke-miterlimit="10" stroke-width="3"/>
        <path id="Path_8441" data-name="Path 8441" d="M-681.485,404.494c-12.4.038-21.477,11.039-21.608,21.523-.09,7.182,2.232,11.447,6.232,16.541,2.57,3.272,6.588,5.876,9.435,9.416,4.21,5.234,3.286,13.557,3.321,20.139.041,7.6-.285,7.654-.216,15.532" transform="translate(0 0)" fill="none" stroke="#9a9898" stroke-linecap="round" stroke-miterlimit="10" stroke-width="3"/>
      </g>
      <path id="Path_8458" data-name="Path 8458" d="M-778.508,520.89l11.706-4.782,32.01,17.62,56.069,31.682-24.107,42.2L-791.8,559.5l-2.151-14.376" fill="none" stroke="#bfbebe" stroke-width="1" stroke-dasharray="3 3"/>
    </g>
  </g>
</svg>
